<svg width="0" height="0" class="hidden">
 <symbol fill="none" xmlns="http://www.w3.org/2000/svg" viewBox="0 0 20 21" id="arrow-left">
    <path d="M12.5 16.6238L7.06667 11.1904C6.425 10.5488 6.425 9.49875 7.06667 8.85709L12.5 3.42375" stroke="currentColor" strokeWidth="1.18719" stroke-miterlimit="10" strokeLinecap="round" strokeLinejoin="round"></path>
  </symbol>
 <symbol fill="none" xmlns="http://www.w3.org/2000/svg" viewBox="0 0 20 21" id="arrow-right">
    <path d="M7.425 16.6238L12.8583 11.1904C13.5 10.5488 13.5 9.49875 12.8583 8.85709L7.425 3.42375" stroke="currentColor" strokeWidth="1.18719" stroke-miterlimit="10" strokeLinecap="round" strokeLinejoin="round"></path>
  </symbol>
 <symbol fill="none" xmlns="http://www.w3.org/2000/svg" viewBox="0 0 24 24" id="attach-circle">
    <path d="M12.2 11.8002L10.79 13.2102C10.01 13.9902 10.01 15.2602 10.79 16.0402C11.57 16.8202 12.84 16.8202 13.62 16.0402L15.84 13.8202C17.4 12.2602 17.4 9.73023 15.84 8.16023C14.28 6.60023 11.75 6.60023 10.18 8.16023L7.76 10.5802C6.42 11.9202 6.42 14.0902 7.76 15.4302" stroke="currentColor" strokeWidth="1.5" strokeLinecap="round" strokeLinejoin="round"></path>
    <path d="M12 22C17.5228 22 22 17.5228 22 12C22 6.47715 17.5228 2 12 2C6.47715 2 2 6.47715 2 12C2 17.5228 6.47715 22 12 22Z" stroke="currentColor" strokeWidth="1.5" strokeLinecap="round" strokeLinejoin="round"></path>
  </symbol>
 <symbol fill="none" xmlns="http://www.w3.org/2000/svg" viewBox="0 0 24 24" id="task">
    <path d="M22 16.74V4.67001C22 3.47001 21.02 2.58001 19.83 2.68001H19.77C17.67 2.86001 14.48 3.93001 12.7 5.05001L12.53 5.16001C12.24 5.34001 11.76 5.34001 11.47 5.16001L11.22 5.01001C9.44 3.90001 6.26 2.84001 4.16 2.67001C2.97 2.57001 2 3.47001 2 4.66001V16.74C2 17.7 2.78 18.6 3.74 18.72L4.03 18.76C6.2 19.05 9.55 20.15 11.47 21.2L11.51 21.22C11.78 21.37 12.21 21.37 12.47 21.22C14.39 20.16 17.75 19.05 19.93 18.76L20.26 18.72C21.22 18.6 22 17.7 22 16.74Z" stroke="currentColor" strokeWidth="1.5" strokeLinecap="round" strokeLinejoin="round"></path>
    <path d="M12 5.48999V20.49" stroke="currentColor" strokeWidth="1.5" strokeLinecap="round" strokeLinejoin="round"></path>
    <path d="M7.75 8.48999H5.5" stroke="currentColor" strokeWidth="1.5" strokeLinecap="round" strokeLinejoin="round"></path>
    <path d="M8.5 11.49H5.5" stroke="currentColor" strokeWidth="1.5" strokeLinecap="round" strokeLinejoin="round"></path>
  </symbol>
 <symbol fill="none" xmlns="http://www.w3.org/2000/svg" viewBox="0 0 40 40" id="book-square">
    <path d="M26.9834 3.33333H13.0167C6.95004 3.33333 3.33337 6.95 3.33337 13.0167V26.9667C3.33337 33.05 6.95004 36.6667 13.0167 36.6667H26.9667C33.0334 36.6667 36.65 33.05 36.65 26.9833V13.0167C36.6667 6.95 33.05 3.33333 26.9834 3.33333ZM19.1667 28.75C19.1667 29.35 18.5667 29.75 18.0167 29.5167C16 28.65 13.3667 27.85 11.5334 27.6167L11.2167 27.5833C10.2 27.45 9.36671 26.5 9.36671 25.4667V12.6333C9.36671 11.35 10.4 10.4 11.6667 10.5C13.75 10.6667 16.8334 11.6667 18.7667 12.7667C19.0334 12.9167 19.1667 13.2 19.1667 13.4833V28.75ZM30.6334 25.45C30.6334 26.4833 29.8 27.4333 28.7834 27.5667L28.4334 27.6C26.6167 27.85 24 28.6333 21.9834 29.4833C21.4334 29.7167 20.8334 29.3167 20.8334 28.7167V13.4667C20.8334 13.1667 20.9834 12.8833 21.25 12.7333C23.1834 11.65 26.2 10.6833 28.25 10.5H28.3167C29.6 10.5 30.6334 11.5333 30.6334 12.8167V25.45Z" fill="currentColor"></path>
  </symbol>
 <symbol fill="none" xmlns="http://www.w3.org/2000/svg" viewBox="0 0 24 24" id="overview">
    <path d="M17 10H19C21 10 22 9 22 7V5C22 3 21 2 19 2H17C15 2 14 3 14 5V7C14 9 15 10 17 10Z" stroke="currentColor" strokeWidth="1.5" stroke-miterlimit="10" strokeLinecap="round" strokeLinejoin="round"></path>
    <path d="M5 22H7C9 22 10 21 10 19V17C10 15 9 14 7 14H5C3 14 2 15 2 17V19C2 21 3 22 5 22Z" stroke="currentColor" strokeWidth="1.5" stroke-miterlimit="10" strokeLinecap="round" strokeLinejoin="round"></path>
    <path d="M6 10C8.20914 10 10 8.20914 10 6C10 3.79086 8.20914 2 6 2C3.79086 2 2 3.79086 2 6C2 8.20914 3.79086 10 6 10Z" stroke="currentColor" strokeWidth="1.5" stroke-miterlimit="10" strokeLinecap="round" strokeLinejoin="round"></path>
    <path d="M18 22C20.2091 22 22 20.2091 22 18C22 15.7909 20.2091 14 18 14C15.7909 14 14 15.7909 14 18C14 20.2091 15.7909 22 18 22Z" stroke="currentColor" strokeWidth="1.5" stroke-miterlimit="10" strokeLinecap="round" strokeLinejoin="round"></path>
  </symbol>
 <symbol fill="none" xmlns="http://www.w3.org/2000/svg" viewBox="0 0 24 24" id="category-filter">
    <path d="M10.5 19.9V4.1C10.5 2.6 9.86 2 8.27 2H4.23C2.64 2 2 2.6 2 4.1V19.9C2 21.4 2.64 22 4.23 22H8.27C9.86 22 10.5 21.4 10.5 19.9Z" stroke="currentColor" strokeWidth="1.5" strokeLinecap="round" strokeLinejoin="round"></path>
    <path d="M22 10.9V4.1C22 2.6 21.36 2 19.77 2H15.73C14.14 2 13.5 2.6 13.5 4.1V10.9C13.5 12.4 14.14 13 15.73 13H19.77C21.36 13 22 12.4 22 10.9Z" stroke="currentColor" strokeWidth="1.5" strokeLinecap="round" strokeLinejoin="round"></path>
    <path d="M22 19.9V18.1C22 16.6 21.36 16 19.77 16H15.73C14.14 16 13.5 16.6 13.5 18.1V19.9C13.5 21.4 14.14 22 15.73 22H19.77C21.36 22 22 21.4 22 19.9Z" stroke="currentColor" strokeWidth="1.5" strokeLinecap="round" strokeLinejoin="round"></path>
  </symbol>
  
 <symbol fill="none" xmlns="http://www.w3.org/2000/svg" viewBox="0 0 24 24" id="message">
    <path d="M8.5 19H8C4 19 2 18 2 13V8C2 4 4 2 8 2H16C20 2 22 4 22 8V13C22 17 20 19 16 19H15.5C15.19 19 14.89 19.15 14.7 19.4L13.2 21.4C12.54 22.28 11.46 22.28 10.8 21.4L9.3 19.4C9.14 19.18 8.77 19 8.5 19Z" stroke="currentColor" strokeWidth="1.5" stroke-miterlimit="10" strokeLinecap="round" strokeLinejoin="round"></path>
    <path d="M15.9965 11H16.0054" stroke="currentColor" strokeWidth="2" strokeLinecap="round" strokeLinejoin="round"></path>
    <path d="M11.9955 11H12.0045" stroke="currentColor" strokeWidth="2" strokeLinecap="round" strokeLinejoin="round"></path>
    <path d="M7.99451 11H8.00349" stroke="currentColor" strokeWidth="2" strokeLinecap="round" strokeLinejoin="round"></path>
  </symbol>
  
 <symbol fill="none" xmlns="http://www.w3.org/2000/svg" viewBox="0 0 20 20" id="more">
    <path d="M4.16667 8.33334C3.25 8.33334 2.5 9.08334 2.5 10C2.5 10.9167 3.25 11.6667 4.16667 11.6667C5.08333 11.6667 5.83333 10.9167 5.83333 10C5.83333 9.08334 5.08333 8.33334 4.16667 8.33334Z" fill="currentColor" stroke="currentColor"></path>
    <path d="M15.8333 8.33334C14.9167 8.33334 14.1667 9.08334 14.1667 10C14.1667 10.9167 14.9167 11.6667 15.8333 11.6667C16.75 11.6667 17.5 10.9167 17.5 10C17.5 9.08334 16.75 8.33334 15.8333 8.33334Z" fill="currentColor" stroke="currentColor"></path>
    <path d="M9.99999 8.33334C9.08333 8.33334 8.33333 9.08334 8.33333 10C8.33333 10.9167 9.08333 11.6667 9.99999 11.6667C10.9167 11.6667 11.6667 10.9167 11.6667 10C11.6667 9.08334 10.9167 8.33334 9.99999 8.33334Z" fill="currentColor" stroke="currentColor"></path>
  </symbol>
  
 <symbol fill="none" xmlns="http://www.w3.org/2000/svg" viewBox="0 0 24 24" id="note">
    <path d="M21.66 10.44L20.68 14.62C19.84 18.23 18.18 19.69 15.06 19.39C14.56 19.35 14.02 19.26 13.44 19.12L11.76 18.72C7.59 17.73 6.3 15.67 7.28 11.49L8.26 7.30001C8.46 6.45001 8.7 5.71001 9 5.10001C10.17 2.68001 12.16 2.03001 15.5 2.82001L17.17 3.21001C21.36 4.19001 22.64 6.26001 21.66 10.44Z" stroke="currentColor" strokeWidth="1.5" strokeLinecap="round" strokeLinejoin="round"></path>
    <path d="M15.06 19.39C14.44 19.81 13.66 20.16 12.71 20.47L11.13 20.99C7.15998 22.27 5.06997 21.2 3.77997 17.23L2.49997 13.28C1.21997 9.30998 2.27997 7.20998 6.24997 5.92998L7.82997 5.40998C8.23997 5.27998 8.62997 5.16998 8.99997 5.09998C8.69997 5.70998 8.45997 6.44998 8.25997 7.29998L7.27997 11.49C6.29997 15.67 7.58998 17.73 11.76 18.72L13.44 19.12C14.02 19.26 14.56 19.35 15.06 19.39Z" stroke="currentColor" strokeWidth="1.5" strokeLinecap="round" strokeLinejoin="round"></path>
    <path d="M12.64 8.53003L17.49 9.76003" stroke="currentColor" strokeWidth="1.5" strokeLinecap="round" strokeLinejoin="round"></path>
    <path d="M11.66 12.4L14.56 13.14" stroke="currentColor" strokeWidth="1.5" strokeLinecap="round" strokeLinejoin="round"></path>
  </symbol>
  
 <symbol fill="none" xmlns="http://www.w3.org/2000/svg" viewBox="0 0 24 25" id="notification">
    <path fill-rule="evenodd" clip-rule="evenodd" d="M3.50083 14.2109V13.9919C3.53295 13.344 3.7406 12.7162 4.10236 12.1734C4.7045 11.5212 5.1167 10.7221 5.29571 9.85973C5.29571 9.19325 5.29571 8.51726 5.35393 7.85078C5.65469 4.64217 8.82728 2.42375 11.9611 2.42375H12.0387C15.1725 2.42375 18.345 4.64217 18.6555 7.85078C18.7137 8.51726 18.6555 9.19325 18.704 9.85973C18.8854 10.7241 19.2972 11.5257 19.8974 12.1829C20.2618 12.721 20.4698 13.3464 20.4989 13.9919V14.2014C20.5206 15.0718 20.2208 15.9206 19.6548 16.5911C18.907 17.3752 17.8921 17.863 16.8024 17.9622C13.607 18.305 10.383 18.305 7.18762 17.9622C6.09914 17.8587 5.08576 17.3717 4.33521 16.5911C3.778 15.9201 3.48224 15.0763 3.50083 14.2109Z" stroke="currentColor" strokeWidth="1.5" strokeLinecap="round" strokeLinejoin="round"></path>
    <path d="M9.55493 21.2755C10.0542 21.9022 10.7874 22.3078 11.5922 22.4025C12.3971 22.4972 13.2072 22.2732 13.8433 21.7801C14.0389 21.6343 14.2149 21.4648 14.3672 21.2755" stroke="currentColor" strokeWidth="1.5" strokeLinecap="round" strokeLinejoin="round"></path>
  </symbol>

 <symbol fill="none" xmlns="http://www.w3.org/2000/svg" viewBox="0 0 24 24" id="send-chat">
    <path d="M16.14 2.96004L7.11 5.96004C1.04 7.99004 1.04 11.3 7.11 13.32L9.79 14.21L10.68 16.89C12.7 22.96 16.02 22.96 18.04 16.89L21.05 7.87004C22.39 3.82004 20.19 1.61004 16.14 2.96004ZM16.46 8.34004L12.66 12.16C12.51 12.31 12.32 12.38 12.13 12.38C11.94 12.38 11.75 12.31 11.6 12.16C11.31 11.87 11.31 11.39 11.6 11.1L15.4 7.28004C15.69 6.99004 16.17 6.99004 16.46 7.28004C16.75 7.57004 16.75 8.05004 16.46 8.34004Z" fill="white"></path>
  </symbol>
 <symbol fill="none" xmlns="http://www.w3.org/2000/svg" viewBox="0 0 24 24" id="setting-sidebar">
    <path d="M12 15C13.6569 15 15 13.6569 15 12C15 10.3431 13.6569 9 12 9C10.3431 9 9 10.3431 9 12C9 13.6569 10.3431 15 12 15Z" stroke="currentColor" strokeWidth="1.5" stroke-miterlimit="10" strokeLinecap="round" strokeLinejoin="round"></path>
    <path d="M2 12.88V11.12C2 10.08 2.85 9.22 3.9 9.22C5.71 9.22 6.45 7.94 5.54 6.37C5.02 5.47 5.33 4.3 6.24 3.78L7.97 2.79C8.76 2.32 9.78 2.6 10.25 3.39L10.36 3.58C11.26 5.15 12.74 5.15 13.65 3.58L13.76 3.39C14.23 2.6 15.25 2.32 16.04 2.79L17.77 3.78C18.68 4.3 18.99 5.47 18.47 6.37C17.56 7.94 18.3 9.22 20.11 9.22C21.15 9.22 22.01 10.07 22.01 11.12V12.88C22.01 13.92 21.16 14.78 20.11 14.78C18.3 14.78 17.56 16.06 18.47 17.63C18.99 18.54 18.68 19.7 17.77 20.22L16.04 21.21C15.25 21.68 14.23 21.4 13.76 20.61L13.65 20.42C12.75 18.85 11.27 18.85 10.36 20.42L10.25 20.61C9.78 21.4 8.76 21.68 7.97 21.21L6.24 20.22C5.33 19.7 5.02 18.53 5.54 17.63C6.45 16.06 5.71 14.78 3.9 14.78C2.85 14.78 2 13.92 2 12.88Z" stroke="currentColor" strokeWidth="1.5" stroke-miterlimit="10" strokeLinecap="round" strokeLinejoin="round"></path>
  </symbol>
 <symbol fill="none" xmlns="http://www.w3.org/2000/svg" viewBox="0 0 24 24" id="setting-filter">
    <path d="M22 6.5H16" stroke="currentColor" strokeWidth="1.5" stroke-miterlimit="10" strokeLinecap="round" strokeLinejoin="round"></path>
    <path d="M6 6.5H2" stroke="currentColor" strokeWidth="1.5" stroke-miterlimit="10" strokeLinecap="round" strokeLinejoin="round"></path>
    <path d="M10 10C11.933 10 13.5 8.433 13.5 6.5C13.5 4.567 11.933 3 10 3C8.067 3 6.5 4.567 6.5 6.5C6.5 8.433 8.067 10 10 10Z" stroke="currentColor" strokeWidth="1.5" stroke-miterlimit="10" strokeLinecap="round" strokeLinejoin="round"></path>
    <path d="M22 17.5H18" stroke="currentColor" strokeWidth="1.5" stroke-miterlimit="10" strokeLinecap="round" strokeLinejoin="round"></path>
    <path d="M8 17.5H2" stroke="currentColor" strokeWidth="1.5" stroke-miterlimit="10" strokeLinecap="round" strokeLinejoin="round"></path>
    <path d="M14 21C15.933 21 17.5 19.433 17.5 17.5C17.5 15.567 15.933 14 14 14C12.067 14 10.5 15.567 10.5 17.5C10.5 19.433 12.067 21 14 21Z" stroke="currentColor" strokeWidth="1.5" stroke-miterlimit="10" strokeLinecap="round" strokeLinejoin="round"></path>
  </symbol>
 <symbol fill="none" xmlns="http://www.w3.org/2000/svg" viewBox="0 0 24 24" id="sort">
    <path d="M3 7H21" stroke="currentColor" strokeWidth="1.5" strokeLinecap="round"></path>
    <path d="M6 12H18" stroke="currentColor" strokeWidth="1.5" strokeLinecap="round"></path>
    <path d="M10 17H14" stroke="currentColor" strokeWidth="1.5" strokeLinecap="round"></path>
  </symbol>
 <symbol fill="none" xmlns="http://www.w3.org/2000/svg" viewBox="0 0 20 19" id="star">
    <path d="M9.04894 0.927052C9.3483 0.00574112 10.6517 0.00573993 10.9511 0.927051L12.4697 5.60081C12.6035 6.01284 12.9875 6.2918 13.4207 6.2918H18.335C19.3037 6.2918 19.7065 7.53141 18.9228 8.10081L14.947 10.9894C14.5966 11.244 14.4499 11.6954 14.5838 12.1074L16.1024 16.7812C16.4017 17.7025 15.3472 18.4686 14.5635 17.8992L10.5878 15.0106C10.2373 14.756 9.7627 14.756 9.41221 15.0106L5.43648 17.8992C4.65276 18.4686 3.59828 17.7025 3.89763 16.7812L5.41623 12.1074C5.55011 11.6954 5.40345 11.244 5.05296 10.9894L1.07722 8.10081C0.293507 7.53141 0.696283 6.2918 1.66501 6.2918H6.57929C7.01252 6.2918 7.39647 6.01284 7.53035 5.60081L9.04894 0.927052Z" fill="#FFB054"></path>
  </symbol>
 <symbol fill="none" xmlns="http://www.w3.org/2000/svg" viewBox="0 0 24 24" id="time-circle">
    <path fill-rule="evenodd" clip-rule="evenodd" d="M21.2498 12.0005C21.2498 17.1095 17.1088 21.2505 11.9998 21.2505C6.89082 21.2505 2.74982 17.1095 2.74982 12.0005C2.74982 6.89149 6.89082 2.75049 11.9998 2.75049C17.1088 2.75049 21.2498 6.89149 21.2498 12.0005Z" stroke="currentColor" strokeWidth="1.5" strokeLinecap="round" strokeLinejoin="round"></path>
    <path d="M15.4314 14.9429L11.6614 12.6939V7.84692" stroke="currentColor" strokeWidth="1.5" strokeLinecap="round" strokeLinejoin="round"></path>
  </symbol>
 <symbol fill="none" xmlns="http://www.w3.org/2000/svg" viewBox="0 0 24 24" id="user-octagon">
    <path d="M21.08 8.58003V15.42C21.08 16.54 20.48 17.58 19.51 18.15L13.57 21.58C12.6 22.14 11.4 22.14 10.42 21.58L4.48003 18.15C3.51003 17.59 2.91003 16.55 2.91003 15.42V8.58003C2.91003 7.46003 3.51003 6.41999 4.48003 5.84999L10.42 2.42C11.39 1.86 12.59 1.86 13.57 2.42L19.51 5.84999C20.48 6.41999 21.08 7.45003 21.08 8.58003Z" stroke="currentColor" strokeWidth="1.5" strokeLinecap="round" strokeLinejoin="round"></path>
    <path d="M12 11C13.2869 11 14.33 9.95681 14.33 8.66998C14.33 7.38316 13.2869 6.34003 12 6.34003C10.7132 6.34003 9.67004 7.38316 9.67004 8.66998C9.67004 9.95681 10.7132 11 12 11Z" stroke="currentColor" strokeWidth="1.5" strokeLinecap="round" strokeLinejoin="round"></path>
    <path d="M16 16.66C16 14.86 14.21 13.4 12 13.4C9.79 13.4 8 14.86 8 16.66" stroke="currentColor" strokeWidth="1.5" strokeLinecap="round" strokeLinejoin="round"></path>
  </symbol>
 <symbol fill="none" xmlns="http://www.w3.org/2000/svg" viewBox="0 0 24 24" id="video">
    <path d="M12.53 20.4201H6.21C3.05 20.4201 2 18.3201 2 16.2101V7.79008C2 4.63008 3.05 3.58008 6.21 3.58008H12.53C15.69 3.58008 16.74 4.63008 16.74 7.79008V16.2101C16.74 19.3701 15.68 20.4201 12.53 20.4201Z" stroke="currentColor" strokeWidth="1.5" strokeLinecap="round" strokeLinejoin="round"></path>
    <path d="M19.52 17.1001L16.74 15.1501V8.84013L19.52 6.89013C20.88 5.94013 22 6.52013 22 8.19013V15.8101C22 17.4801 20.88 18.0601 19.52 17.1001Z" stroke="currentColor" strokeWidth="1.5" strokeLinecap="round" strokeLinejoin="round"></path>
    <path d="M11.5 11C12.3284 11 13 10.3284 13 9.5C13 8.67157 12.3284 8 11.5 8C10.6716 8 10 8.67157 10 9.5C10 10.3284 10.6716 11 11.5 11Z" stroke="currentColor" strokeWidth="1.5" strokeLinecap="round" strokeLinejoin="round"></path>
  </symbol>
 <symbol fill="none" xmlns="http://www.w3.org/2000/svg" viewBox="0 0 24 24" id="voice-call">
    <path d="M21.97 18.33C21.97 18.69 21.89 19.06 21.72 19.42C21.55 19.78 21.33 20.12 21.04 20.44C20.55 20.98 20.01 21.37 19.4 21.62C18.8 21.87 18.15 22 17.45 22C16.43 22 15.34 21.76 14.19 21.27C13.04 20.78 11.89 20.12 10.75 19.29C9.6 18.45 8.51 17.52 7.47 16.49C6.44 15.45 5.51 14.36 4.68 13.22C3.86 12.08 3.2 10.94 2.72 9.81C2.24 8.67 2 7.58 2 6.54C2 5.86 2.12 5.21 2.36 4.61C2.6 4 2.98 3.44 3.51 2.94C4.15 2.31 4.85 2 5.59 2C5.87 2 6.15 2.06 6.4 2.18C6.66 2.3 6.89 2.48 7.07 2.74L9.39 6.01C9.57 6.26 9.7 6.49 9.79 6.71C9.88 6.92 9.93 7.13 9.93 7.32C9.93 7.56 9.86 7.8 9.72 8.03C9.59 8.26 9.4 8.5 9.16 8.74L8.4 9.53C8.29 9.64 8.24 9.77 8.24 9.93C8.24 10.01 8.25 10.08 8.27 10.16C8.3 10.24 8.33 10.3 8.35 10.36C8.53 10.69 8.84 11.12 9.28 11.64C9.73 12.16 10.21 12.69 10.73 13.22C11.27 13.75 11.79 14.24 12.32 14.69C12.84 15.13 13.27 15.43 13.61 15.61C13.66 15.63 13.72 15.66 13.79 15.69C13.87 15.72 13.95 15.73 14.04 15.73C14.21 15.73 14.34 15.67 14.45 15.56L15.21 14.81C15.46 14.56 15.7 14.37 15.93 14.25C16.16 14.11 16.39 14.04 16.64 14.04C16.83 14.04 17.03 14.08 17.25 14.17C17.47 14.26 17.7 14.39 17.95 14.56L21.26 16.91C21.52 17.09 21.7 17.3 21.81 17.55C21.91 17.8 21.97 18.05 21.97 18.33Z" stroke="currentColor" strokeWidth="1.5" stroke-miterlimit="10"></path>
  </symbol>

 <symbol fill="none"id="user-current" xmlns="http://www.w3.org/2000/svg" viewBox="0 0 16 17" >
    <path d="M6.10671 7.74659C6.04004 7.73992 5.96004 7.73992 5.88671 7.74659C4.30004 7.69325 3.04004 6.39325 3.04004 4.79325C3.04004 3.15992 4.36004 1.83325 6.00004 1.83325C7.63337 1.83325 8.96004 3.15992 8.96004 4.79325C8.95337 6.39325 7.69337 7.69325 6.10671 7.74659Z" stroke="currentColor" stroke-width="1.5" stroke-linecap="round" stroke-linejoin="round"/>
    <path d="M10.9401 3.16675C12.2334 3.16675 13.2734 4.21341 13.2734 5.50008C13.2734 6.76008 12.2734 7.78675 11.0267 7.83341C10.9734 7.82675 10.9134 7.82675 10.8534 7.83341" stroke="currentColor" stroke-width="1.5" stroke-linecap="round" stroke-linejoin="round"/>
    <path d="M2.77335 10.2067C1.16002 11.2867 1.16002 13.0467 2.77335 14.1201C4.60669 15.3467 7.61335 15.3467 9.44669 14.1201C11.06 13.0401 11.06 11.2801 9.44669 10.2067C7.62002 8.98675 4.61335 8.98675 2.77335 10.2067Z" stroke="currentColor" stroke-width="1.5" stroke-linecap="round" stroke-linejoin="round"/>
    <path d="M12.2267 13.8333C12.7067 13.7333 13.16 13.5399 13.5334 13.2533C14.5734 12.4733 14.5734 11.1866 13.5334 10.4066C13.1667 10.1266 12.72 9.93992 12.2467 9.83325" stroke="currentColor" stroke-width="1.5" stroke-linecap="round" stroke-linejoin="round"/>
  </symbol>

 <symbol fill="none"id="upload" xmlns="http://www.w3.org/2000/svg"  viewBox="0 0 32 32" >
    <path d="M28.8934 19.0667L28.3601 25.7334C28.1601 27.7734 28.0001 29.3334 24.3868 29.3334H7.61343C4.0001 29.3334 3.8401 27.7734 3.6401 25.7334L3.10676 19.0667C3.0001 17.9601 3.34676 16.9334 3.97343 16.1467C3.98676 16.1334 3.98676 16.1334 4.0001 16.1201C4.73343 15.2267 5.8401 14.6667 7.0801 14.6667H24.9201C26.1601 14.6667 27.2534 15.2267 27.9734 16.0934C27.9868 16.1067 28.0001 16.1201 28.0001 16.1334C28.6534 16.9201 29.0134 17.9467 28.8934 19.0667Z" stroke="currentColor" stroke-width="1.5" stroke-miterlimit="10"/>
    <path d="M4.66675 15.2401V8.37345C4.66675 3.84012 5.80008 2.70679 10.3334 2.70679H12.0267C13.7201 2.70679 14.1067 3.21345 14.7467 4.06679L16.4401 6.33345C16.8667 6.89345 17.1201 7.24012 18.2534 7.24012H21.6534C26.1867 7.24012 27.3201 8.37345 27.3201 12.9068V15.2935" stroke="currentColor" stroke-width="1.5" stroke-miterlimit="10" stroke-linecap="round" stroke-linejoin="round"/>
    <path d="M12.5732 22.6667H19.4266" stroke="currentColor" stroke-width="1.5" stroke-miterlimit="10" stroke-linecap="round" stroke-linejoin="round"/>
  </symbol>
</svg>
